<?xml version="1.0" encoding="utf-8"?><!-- Uploaded to: SVG Repo, www.svgrepo.com, Generator: SVG Repo Mixer Tools -->
<svg fill="#000000" width="800px" height="800px" viewBox="0 0 24 24" id="file-folder-2" data-name="Flat Color" xmlns="http://www.w3.org/2000/svg" class="icon flat-color"><path id="secondary" d="M19.71,4.29l-2-2A1,1,0,0,0,17,2H6A2,2,0,0,0,4,4v7a1,1,0,0,0,1,1H19a1,1,0,0,0,1-1V5A1,1,0,0,0,19.71,4.29Z" style="fill: rgb(44, 169, 188);"></path><path id="primary" d="M20,5H18a1,1,0,0,1-1-1V2a1,1,0,0,1,.71.29l2,2A1,1,0,0,1,20,5Zm0,5H11.4L9.7,8.29A1.05,1.05,0,0,0,9,8H4a2,2,0,0,0-2,2V20a2,2,0,0,0,2,2H20a2,2,0,0,0,2-2V12A2,2,0,0,0,20,10Z" style="fill: rgb(0, 0, 0);"></path></svg>